<svg xmlns="http://www.w3.org/2000/svg" viewBox="0 0 64 64">
  <rect width="64" height="64" rx="14" fill="#0B2C39"/>
  <!-- Bulbo -->
  <path d="M32 10c-9 0-16 7-16 15.6 0 5.3 2.7 9.5 5.6 12.6 1.5 1.6 2.4 3 2.8 4.5h15.2c.4-1.5 1.3-2.9 2.8-4.5C45.3 35.1 48 30.9 48 25.6 48 17 41 10 32 10z"
        fill="none" stroke="#F97316" stroke-width="3" stroke-linejoin="round"/>
  <!-- Rosca -->
  <path d="M25 47h14M26 51.5h12M29 56h6" stroke="#F97316" stroke-width="2.8" stroke-linecap="round" fill="none"/>
  <!-- Folhas -->
  <path d="M32 40c0-7.4 5-12.9 11.9-14-.7 7.6-5.3 12.9-11.9 14z" fill="#22C55E"/>
  <path d="M32 40c-.7-6.4-5.3-11-11.3-11.8.6 6.7 5 11.3 11.3 11.8z" fill="#4ADE80"/>
  <path d="M32 41.8V31" stroke="#4ADE80" stroke-width="2.4" stroke-linecap="round"/>
</svg>
